<?xml version="1.0" standalone="no"?>
<!DOCTYPE svg PUBLIC "-//W3C//DTD SVG 20010904//EN"
 "http://www.w3.org/TR/2001/REC-SVG-20010904/DTD/svg10.dtd">
<svg version="1.0" xmlns="http://www.w3.org/2000/svg"
 width="450.000000pt" height="450.000000pt" viewBox="0 0 450.000000 450.000000"
 preserveAspectRatio="xMidYMid meet" style="background: white">
<metadata>
Created by potrace 1.10, written by Peter Selinger 2001-2011
</metadata>
<g transform="translate(0.000000,450.000000) scale(0.100000,-0.100000)"
fill="#000000" stroke="none">
<path d="M2080 4169 c-679 -60 -1281 -480 -1573 -1098 -300 -635 -228 -1380
189 -1960 89 -123 292 -326 415 -415 693 -498 1607 -496 2282 5 414 307 684
756 763 1269 22 141 22 420 0 559 -140 899 -850 1563 -1756 1641 -130 11 -184
11 -320 -1z m439 -34 c369 -53 702 -208 998 -464 212 -184 413 -478 518 -758
40 -104 83 -276 100 -393 20 -141 19 -402 -1 -543 -110 -752 -667 -1378 -1396
-1567 -165 -42 -304 -60 -480 -60 -234 0 -414 28 -613 94 -562 188 -1013 639
-1200 1199 -63 189 -86 328 -92 552 -6 226 7 349 56 540 190 732 813 1290
1564 1399 127 19 417 19 546 1z"/>
<path d="M1927 3166 l28 -24 0 -266 c0 -146 1 -266 3 -266 2 0 14 12 27 28 24
27 24 28 25 265 l0 237 121 0 c66 0 141 -5 166 -11 52 -14 105 -61 119 -107 9
-31 9 -31 33 -13 23 18 23 18 6 55 -26 54 -88 103 -147 115 -27 6 -130 11
-229 11 l-180 0 28 -24z"/>
<path d="M2739 3090 c-337 -96 -728 -407 -901 -715 -47 -83 -106 -240 -95
-252 2 -1 24 39 50 90 84 165 235 345 430 513 183 157 369 273 597 372 42 18
-6 13 -81 -8z"/>
<path d="M2060 2908 l0 -193 27 27 c26 26 26 28 24 157 -1 72 0 134 2 138 3 5
44 6 91 3 94 -6 114 -16 125 -69 6 -31 7 -31 29 -15 29 20 23 56 -16 97 -34
36 -78 47 -189 47 l-93 0 0 -192z"/>
<path d="M2431 2841 l-23 -18 31 -13 c41 -17 95 -80 109 -129 31 -103 -6 -213
-89 -264 -44 -27 -53 -28 -175 -30 l-129 -2 -3 -29 -4 -29 139 5 c158 5 193
17 256 87 52 58 69 104 69 186 0 103 -36 177 -111 229 -44 31 -40 30 -70 7z"/>
<path d="M2330 2764 l-34 -24 34 0 c97 0 157 -105 114 -196 -25 -53 -56 -64
-184 -64 l-111 0 3 -27 3 -28 100 0 c120 0 154 7 196 42 86 73 77 236 -16 292
-50 31 -67 32 -105 5z"/>
<path d="M2083 2540 c-22 -27 -23 -35 -23 -244 l0 -216 -25 0 -26 0 3 190 c2
105 2 190 0 190 -2 0 -14 -12 -27 -27 -24 -27 -24 -33 -25 -185 l0 -157 -29
-33 -29 -33 129 0 c71 0 129 2 129 4 0 3 -10 15 -22 29 -23 23 -23 28 -23 268
0 134 -2 244 -5 243 -3 0 -15 -13 -27 -29z"/>
<path d="M2014 1736 c-10 -26 4 -48 28 -44 17 2 23 10 23 28 0 18 -6 26 -23
28 -13 2 -25 -3 -28 -12z"/>
<path d="M1710 1585 c0 -72 2 -134 4 -136 2 -2 50 -2 106 1 86 4 104 8 116 24
22 30 17 72 -10 93 l-23 18 19 26 c23 31 18 62 -15 84 -14 9 -56 16 -110 18
l-87 3 0 -131z m168 61 c5 -27 -24 -46 -69 -46 -35 0 -37 2 -41 35 l-4 36 55
-3 c46 -2 56 -6 59 -22z m13 -102 c23 -28 -1 -49 -63 -52 l-56 -3 -4 36 -4 35
57 0 c39 0 61 -5 70 -16z"/>
<path d="M2143 1704 c-2 -7 -2 -67 0 -135 3 -123 4 -123 28 -123 21 0 24 4 25
39 1 38 2 40 30 38 74 -6 144 40 144 93 0 37 -20 72 -49 84 -37 15 -172 18
-178 4z m159 -51 c40 -36 8 -83 -59 -83 l-43 0 0 50 0 50 42 0 c24 0 49 -7 60
-17z"/>
<path d="M2430 1580 l0 -141 28 3 c24 3 27 6 24 38 -2 27 3 41 21 59 l25 23
41 -55 c30 -39 50 -56 73 -61 17 -3 33 -4 36 -2 2 3 -21 36 -52 74 -31 38 -56
73 -56 78 0 5 23 33 50 63 28 29 50 55 50 57 0 2 -13 4 -29 4 -24 0 -42 -14
-96 -72 l-66 -73 2 70 c3 69 2 70 -24 73 l-27 3 0 -141z"/>
<path d="M2730 1583 l0 -138 25 0 25 0 0 138 0 137 -25 0 -25 0 0 -137z"/>
<path d="M2010 1550 l0 -110 28 6 c15 4 27 7 27 8 0 1 -1 47 -3 104 -3 101 -4
102 -28 102 -24 0 -24 0 -24 -110z"/>
</g>
</svg>
